G75*
G70*
%OFA0B0*%
%FSLAX24Y24*%
%IPPOS*%
%LPD*%
%AMOC8*
5,1,8,0,0,1.08239X$1,22.5*
%
%ADD10C,0.0000*%
%ADD11C,0.0050*%
%ADD12C,0.0110*%
%ADD13R,0.0320X0.0010*%
%ADD14R,0.0340X0.0010*%
%ADD15R,0.0120X0.0010*%
%ADD16R,0.0420X0.0010*%
%ADD17R,0.0560X0.0010*%
%ADD18R,0.0680X0.0010*%
%ADD19R,0.0780X0.0010*%
%ADD20R,0.0880X0.0010*%
%ADD21R,0.0960X0.0010*%
%ADD22R,0.1020X0.0010*%
%ADD23R,0.1100X0.0010*%
%ADD24R,0.1160X0.0010*%
%ADD25R,0.1220X0.0010*%
%ADD26R,0.1290X0.0010*%
%ADD27R,0.1360X0.0010*%
%ADD28R,0.1410X0.0010*%
%ADD29R,0.1450X0.0010*%
%ADD30R,0.1500X0.0010*%
%ADD31R,0.1530X0.0010*%
%ADD32R,0.1570X0.0010*%
%ADD33R,0.1630X0.0010*%
%ADD34R,0.1670X0.0010*%
%ADD35R,0.1710X0.0010*%
%ADD36R,0.1750X0.0010*%
%ADD37R,0.1790X0.0010*%
%ADD38R,0.1820X0.0010*%
%ADD39R,0.1860X0.0010*%
%ADD40R,0.1890X0.0010*%
%ADD41R,0.1930X0.0010*%
%ADD42R,0.1950X0.0010*%
%ADD43R,0.1990X0.0010*%
%ADD44R,0.2030X0.0010*%
%ADD45R,0.2050X0.0010*%
%ADD46R,0.2090X0.0010*%
%ADD47R,0.2120X0.0010*%
%ADD48R,0.0910X0.0010*%
%ADD49R,0.0860X0.0010*%
%ADD50R,0.0790X0.0010*%
%ADD51R,0.0760X0.0010*%
%ADD52R,0.0770X0.0010*%
%ADD53R,0.0740X0.0010*%
%ADD54R,0.0710X0.0010*%
%ADD55R,0.0720X0.0010*%
%ADD56R,0.0690X0.0010*%
%ADD57R,0.0670X0.0010*%
%ADD58R,0.0650X0.0010*%
%ADD59R,0.0630X0.0010*%
%ADD60R,0.0610X0.0010*%
%ADD61R,0.0050X0.0010*%
%ADD62R,0.0620X0.0010*%
%ADD63R,0.0600X0.0010*%
%ADD64R,0.0090X0.0010*%
%ADD65R,0.0080X0.0010*%
%ADD66R,0.0110X0.0010*%
%ADD67R,0.0590X0.0010*%
%ADD68R,0.0580X0.0010*%
%ADD69R,0.0150X0.0010*%
%ADD70R,0.0140X0.0010*%
%ADD71R,0.0570X0.0010*%
%ADD72R,0.0180X0.0010*%
%ADD73R,0.0190X0.0010*%
%ADD74R,0.0200X0.0010*%
%ADD75R,0.0550X0.0010*%
%ADD76R,0.0210X0.0010*%
%ADD77R,0.0220X0.0010*%
%ADD78R,0.0540X0.0010*%
%ADD79R,0.0230X0.0010*%
%ADD80R,0.0240X0.0010*%
%ADD81R,0.0250X0.0010*%
%ADD82R,0.0260X0.0010*%
%ADD83R,0.0530X0.0010*%
%ADD84R,0.0280X0.0010*%
%ADD85R,0.0270X0.0010*%
%ADD86R,0.0520X0.0010*%
%ADD87R,0.0290X0.0010*%
%ADD88R,0.0310X0.0010*%
%ADD89R,0.0300X0.0010*%
%ADD90R,0.0510X0.0010*%
%ADD91R,0.0500X0.0010*%
%ADD92R,0.0330X0.0010*%
%ADD93R,0.0350X0.0010*%
%ADD94R,0.0490X0.0010*%
%ADD95R,0.0360X0.0010*%
%ADD96R,0.0370X0.0010*%
%ADD97R,0.0480X0.0010*%
%ADD98R,0.0470X0.0010*%
%ADD99R,0.0460X0.0010*%
%ADD100R,0.0450X0.0010*%
%ADD101R,0.0440X0.0010*%
%ADD102R,0.0430X0.0010*%
%ADD103R,0.0410X0.0010*%
%ADD104R,0.0750X0.0010*%
%ADD105R,0.0640X0.0010*%
%ADD106R,0.0730X0.0010*%
%ADD107R,0.0700X0.0010*%
%ADD108R,0.0400X0.0010*%
%ADD109R,0.0830X0.0010*%
%ADD110R,0.0870X0.0010*%
%ADD111R,0.0390X0.0010*%
%ADD112R,0.0660X0.0010*%
%ADD113R,0.0990X0.0010*%
%ADD114R,0.1010X0.0010*%
%ADD115R,0.1040X0.0010*%
%ADD116R,0.1070X0.0010*%
%ADD117R,0.1130X0.0010*%
%ADD118R,0.0380X0.0010*%
%ADD119R,0.1190X0.0010*%
%ADD120R,0.0170X0.0010*%
%ADD121R,0.1250X0.0010*%
%ADD122R,0.1270X0.0010*%
%ADD123R,0.0160X0.0010*%
%ADD124R,0.1310X0.0010*%
%ADD125R,0.1330X0.0010*%
%ADD126R,0.1350X0.0010*%
%ADD127R,0.1370X0.0010*%
%ADD128R,0.1390X0.0010*%
%ADD129R,0.1430X0.0010*%
%ADD130R,0.1470X0.0010*%
%ADD131R,0.1480X0.0010*%
%ADD132R,0.1510X0.0010*%
%ADD133R,0.0030X0.0010*%
%ADD134R,0.1540X0.0010*%
%ADD135R,0.1550X0.0010*%
%ADD136R,0.1590X0.0010*%
%ADD137R,0.1600X0.0010*%
%ADD138R,0.1610X0.0010*%
%ADD139R,0.1640X0.0010*%
%ADD140R,0.1660X0.0010*%
%ADD141R,0.1680X0.0010*%
%ADD142R,0.1690X0.0010*%
%ADD143R,0.1700X0.0010*%
%ADD144R,0.1720X0.0010*%
%ADD145R,0.1230X0.0010*%
%ADD146R,0.0020X0.0010*%
%ADD147R,0.0130X0.0010*%
%ADD148R,0.0100X0.0010*%
%ADD149R,0.0040X0.0010*%
%ADD150R,0.0010X0.0010*%
%ADD151R,0.0070X0.0010*%
%ADD152R,0.0060X0.0010*%
%ADD153R,0.1340X0.0010*%
%ADD154R,0.1920X0.0010*%
%ADD155R,0.1910X0.0010*%
%ADD156R,0.1900X0.0010*%
%ADD157R,0.1880X0.0010*%
%ADD158R,0.1050X0.0010*%
%ADD159R,0.1210X0.0010*%
%ADD160R,0.1580X0.0010*%
%ADD161R,0.1730X0.0010*%
%ADD162R,0.1810X0.0010*%
%ADD163R,0.1870X0.0010*%
%ADD164R,0.1960X0.0010*%
%ADD165R,0.2130X0.0010*%
%ADD166R,0.2170X0.0010*%
%ADD167R,0.2190X0.0010*%
%ADD168R,0.2210X0.0010*%
%ADD169R,0.1080X0.0010*%
%ADD170R,0.1000X0.0010*%
%ADD171R,0.0940X0.0010*%
%ADD172R,0.0800X0.0010*%
%ADD173R,0.0810X0.0010*%
%ADD174R,0.1170X0.0010*%
%ADD175R,0.1280X0.0010*%
%ADD176R,0.1560X0.0010*%
%ADD177R,0.1520X0.0010*%
%ADD178R,0.1460X0.0010*%
%ADD179R,0.1440X0.0010*%
%ADD180R,0.0820X0.0010*%
%ADD181R,0.0930X0.0010*%
%ADD182R,0.2110X0.0010*%
%ADD183R,0.2080X0.0010*%
%ADD184R,0.2020X0.0010*%
%ADD185R,0.1850X0.0010*%
%ADD186R,0.1780X0.0010*%
%ADD187R,0.1740X0.0010*%
%ADD188R,0.1650X0.0010*%
%ADD189R,0.1490X0.0010*%
%ADD190R,0.1380X0.0010*%
D10*
X000150Y000150D02*
X000150Y007320D01*
X007142Y007320D01*
X007142Y000150D01*
X000150Y000150D01*
D11*
X000590Y001622D02*
X000725Y001622D01*
X000725Y001712D02*
X000590Y001712D01*
X000545Y001667D01*
X000590Y001622D01*
X000590Y001712D02*
X000545Y001757D01*
X000545Y001802D01*
X000725Y001802D01*
X000680Y001916D02*
X000590Y001916D01*
X000545Y001961D01*
X000545Y002051D01*
X000590Y002096D01*
X000680Y002096D01*
X000725Y002051D01*
X000725Y001961D01*
X000680Y001916D01*
X000725Y002211D02*
X000725Y002346D01*
X000680Y002391D01*
X000590Y002391D01*
X000545Y002346D01*
X000545Y002211D01*
X000680Y002493D02*
X000725Y002493D01*
X000725Y002538D01*
X000680Y002538D01*
X000680Y002493D01*
X000680Y002653D02*
X000635Y002698D01*
X000635Y002788D01*
X000590Y002833D01*
X000545Y002788D01*
X000545Y002653D01*
X000680Y002653D02*
X000725Y002698D01*
X000725Y002833D01*
X000725Y002939D02*
X000680Y002984D01*
X000500Y002984D01*
X000545Y003029D02*
X000545Y002939D01*
X000590Y003144D02*
X000725Y003144D01*
X000590Y003144D02*
X000545Y003189D01*
X000545Y003324D01*
X000725Y003324D01*
X000635Y003439D02*
X000635Y003619D01*
X000680Y003619D02*
X000590Y003619D01*
X000545Y003574D01*
X000545Y003484D01*
X000590Y003439D01*
X000635Y003439D01*
X000725Y003484D02*
X000725Y003574D01*
X000680Y003619D01*
X000725Y003733D02*
X000725Y003868D01*
X000680Y003913D01*
X000590Y003913D01*
X000545Y003868D01*
X000545Y003733D01*
X000770Y003733D01*
X000815Y003778D01*
X000815Y003823D01*
X000725Y004028D02*
X000545Y004028D01*
X000455Y004118D01*
X000545Y004208D01*
X000725Y004208D01*
X000725Y004322D02*
X000590Y004322D01*
X000545Y004368D01*
X000545Y004503D01*
X000725Y004503D01*
X000545Y004613D02*
X000545Y004658D01*
X000635Y004748D01*
X000725Y004748D02*
X000545Y004748D01*
X000590Y004863D02*
X000635Y004863D01*
X000635Y005043D01*
X000680Y005043D02*
X000590Y005043D01*
X000545Y004998D01*
X000545Y004908D01*
X000590Y004863D01*
X000725Y004908D02*
X000725Y004998D01*
X000680Y005043D01*
X000725Y005149D02*
X000680Y005194D01*
X000500Y005194D01*
X000545Y005239D02*
X000545Y005149D01*
X000545Y005346D02*
X000545Y005436D01*
X000500Y005391D02*
X000680Y005391D01*
X000725Y005346D01*
X000725Y005550D02*
X000590Y005550D01*
X000545Y005595D01*
X000545Y005685D01*
X000635Y005685D02*
X000635Y005550D01*
X000725Y005550D02*
X000725Y005685D01*
X000680Y005730D01*
X000635Y005685D01*
X000590Y005845D02*
X000500Y005845D01*
X000455Y005890D01*
X000455Y006025D01*
X000725Y006025D01*
X000635Y006025D02*
X000635Y005890D01*
X000590Y005845D01*
X000590Y004208D02*
X000590Y004028D01*
D12*
X001792Y005405D02*
X001693Y005503D01*
X001792Y005602D01*
X001989Y005602D01*
X002087Y005700D01*
X001989Y005799D01*
X001693Y005799D01*
X001792Y005405D02*
X002087Y005405D01*
X002320Y005405D02*
X002418Y005503D01*
X002418Y005897D01*
X002320Y005799D02*
X002517Y005799D01*
X002768Y005700D02*
X002768Y005405D01*
X002768Y005700D02*
X002866Y005799D01*
X003161Y005799D01*
X003161Y005405D01*
X003412Y005602D02*
X003806Y005602D01*
X003806Y005700D02*
X003806Y005503D01*
X003707Y005405D01*
X003511Y005405D01*
X003412Y005602D02*
X003412Y005700D01*
X003511Y005799D01*
X003707Y005799D01*
X003806Y005700D01*
X004057Y005799D02*
X004352Y005799D01*
X004450Y005700D01*
X004450Y005503D01*
X004352Y005405D01*
X004057Y005405D01*
X004057Y005307D02*
X004057Y005799D01*
X004057Y005307D02*
X004155Y005208D01*
X004254Y005208D01*
X004701Y005405D02*
X004701Y005799D01*
X004898Y005996D01*
X005095Y005799D01*
X005095Y005405D01*
X005095Y005700D02*
X004701Y005700D01*
X004352Y006455D02*
X004057Y006455D01*
X004057Y006750D01*
X004155Y006849D01*
X004352Y006849D01*
X004352Y006652D02*
X004057Y006652D01*
X003806Y006849D02*
X003609Y006849D01*
X003707Y006947D02*
X003707Y006553D01*
X003609Y006455D01*
X003278Y006553D02*
X003179Y006455D01*
X003278Y006553D02*
X003278Y006947D01*
X003376Y006849D02*
X003179Y006849D01*
X002947Y006750D02*
X002848Y006849D01*
X002651Y006849D01*
X002553Y006750D01*
X002553Y006652D01*
X002947Y006652D01*
X002947Y006750D02*
X002947Y006553D01*
X002848Y006455D01*
X002651Y006455D01*
X002302Y006455D02*
X002302Y006849D01*
X002302Y006652D02*
X002105Y006849D01*
X002007Y006849D01*
X001765Y006849D02*
X001470Y006849D01*
X001371Y006750D01*
X001371Y006455D01*
X001765Y006455D02*
X001765Y006849D01*
X004352Y006652D02*
X004450Y006553D01*
X004352Y006455D01*
X004701Y006750D02*
X004800Y006652D01*
X005095Y006652D01*
X005095Y006455D02*
X005095Y007046D01*
X004800Y007046D01*
X004701Y006947D01*
X004701Y006750D01*
D13*
X003017Y004480D03*
X002397Y003630D03*
X002577Y003020D03*
X002577Y003010D03*
X002957Y003000D03*
X002957Y002710D03*
X002667Y002620D03*
X002657Y002630D03*
X003387Y002760D03*
X003377Y002950D03*
X003807Y002710D03*
X004197Y003020D03*
X004197Y003030D03*
X005097Y003440D03*
X005087Y003500D03*
X005087Y003510D03*
X005117Y003270D03*
X005117Y003260D03*
X005117Y003250D03*
X005117Y003240D03*
X005117Y003230D03*
X005117Y003220D03*
X005117Y003210D03*
X005117Y003200D03*
X005117Y003190D03*
X005117Y003180D03*
X005117Y003170D03*
X005117Y003160D03*
X005117Y003150D03*
X005117Y003140D03*
X005117Y003130D03*
X005117Y003120D03*
X005117Y003110D03*
X005117Y003100D03*
X005117Y003090D03*
X005117Y003080D03*
X003697Y001840D03*
X003067Y001840D03*
X002887Y001920D03*
X001677Y002850D03*
X001677Y002860D03*
X001677Y002870D03*
X001667Y002900D03*
X001667Y002910D03*
X001667Y002920D03*
X001667Y002930D03*
X001667Y002940D03*
X001657Y003000D03*
X001657Y003010D03*
X001657Y003020D03*
X001657Y003030D03*
X001657Y003040D03*
X001657Y003050D03*
X001657Y003300D03*
X001657Y003310D03*
X001657Y003320D03*
X001657Y003330D03*
X001657Y003340D03*
X001657Y003350D03*
X001667Y003410D03*
X001667Y003420D03*
X001667Y003430D03*
X001667Y003440D03*
X001677Y003480D03*
X001677Y003490D03*
X005107Y001120D03*
D14*
X005107Y001130D03*
X005107Y001140D03*
X005107Y001150D03*
X005107Y001160D03*
X005107Y001170D03*
X005107Y001180D03*
X005107Y001190D03*
X005107Y001200D03*
X005107Y001210D03*
X005107Y001220D03*
X005107Y001230D03*
X005107Y001240D03*
X005107Y001250D03*
X005107Y001260D03*
X005107Y001270D03*
X005107Y001280D03*
X005107Y001290D03*
X005107Y001300D03*
X005107Y001310D03*
X005107Y001320D03*
X005107Y001330D03*
X005107Y001340D03*
X005107Y001350D03*
X005107Y001360D03*
X005107Y001370D03*
X005107Y001380D03*
X005107Y001390D03*
X005107Y001400D03*
X005107Y001410D03*
X005107Y001420D03*
X005107Y001430D03*
X005107Y001440D03*
X005107Y001450D03*
X005107Y001460D03*
X005107Y001470D03*
X005107Y001480D03*
X005107Y001490D03*
X005107Y001500D03*
X005107Y001510D03*
X005107Y001520D03*
X005107Y001530D03*
X005107Y001540D03*
X005107Y001550D03*
X005107Y001560D03*
X005107Y001570D03*
X005107Y001580D03*
X005107Y001590D03*
X005107Y001600D03*
X005107Y001610D03*
X005107Y001620D03*
X005107Y001630D03*
X005107Y001640D03*
X005107Y001650D03*
X005107Y001660D03*
X005107Y001670D03*
X005107Y001680D03*
X005107Y001690D03*
X005107Y001700D03*
X005107Y001710D03*
X005107Y001720D03*
X005107Y001730D03*
X005107Y001740D03*
X005107Y001750D03*
X005107Y001760D03*
X005107Y001770D03*
X005107Y001780D03*
X005107Y001790D03*
X005107Y001800D03*
X005107Y001810D03*
X005107Y001820D03*
X005107Y001830D03*
X005107Y001840D03*
X005107Y001850D03*
X005107Y001860D03*
X005107Y001870D03*
X005107Y001880D03*
X005107Y001890D03*
X005107Y001900D03*
X005107Y001910D03*
X005107Y001920D03*
X005107Y001930D03*
X005107Y001940D03*
X005107Y001950D03*
X005107Y001960D03*
X005107Y001970D03*
X005107Y001980D03*
X005107Y001990D03*
X005107Y002000D03*
X005107Y002010D03*
X005107Y002020D03*
X005107Y002030D03*
X005107Y002040D03*
X005107Y002050D03*
X005107Y002060D03*
X005107Y002910D03*
X005107Y002920D03*
X005107Y002930D03*
X005107Y002940D03*
X005107Y002950D03*
X005107Y002960D03*
X005047Y003660D03*
X005047Y003670D03*
X005037Y003690D03*
X005037Y003700D03*
X005037Y003710D03*
X005027Y003720D03*
X005027Y003730D03*
X005027Y003740D03*
X005017Y003760D03*
X005007Y003780D03*
X005007Y003790D03*
X004997Y003810D03*
X004357Y003640D03*
X004177Y003060D03*
X004087Y002600D03*
X003387Y002740D03*
X003387Y002980D03*
X002957Y002990D03*
X002587Y003040D03*
X002587Y003050D03*
X002687Y002600D03*
X001757Y002570D03*
X001747Y002600D03*
X001737Y002630D03*
X001727Y002650D03*
X001727Y002660D03*
X001727Y002670D03*
X001717Y002690D03*
X001717Y002700D03*
X001697Y002770D03*
X001697Y003580D03*
X001707Y003620D03*
X001717Y003650D03*
X001717Y003660D03*
X001727Y003680D03*
X001727Y003690D03*
X001727Y003700D03*
X001737Y003720D03*
X001747Y003740D03*
X001747Y003750D03*
X001757Y003780D03*
X003017Y004470D03*
X003827Y001900D03*
X003717Y001850D03*
D15*
X003487Y001740D03*
X003377Y001280D03*
X002957Y002660D03*
X003077Y002740D03*
X002957Y002840D03*
X002957Y002850D03*
X002957Y002860D03*
X002957Y002870D03*
X003077Y002970D03*
X003307Y002800D03*
X003687Y002740D03*
X003697Y002730D03*
X003807Y002820D03*
X003807Y002870D03*
X003807Y002880D03*
X003937Y002970D03*
X003937Y002740D03*
X003697Y002980D03*
X004287Y003740D03*
X004737Y002930D03*
X004747Y002900D03*
X004757Y002870D03*
X002017Y002890D03*
D16*
X002357Y002390D03*
X002367Y002380D03*
X002377Y002370D03*
X002057Y002060D03*
X002047Y002070D03*
X002067Y002050D03*
X002077Y002040D03*
X002027Y002100D03*
X003377Y001290D03*
X004387Y002370D03*
X004397Y002380D03*
X004707Y002060D03*
X004697Y002050D03*
X005067Y002610D03*
X005067Y002620D03*
X005067Y002630D03*
X004327Y003620D03*
X004747Y004240D03*
X004737Y004250D03*
X004727Y004260D03*
X003837Y004290D03*
X003757Y004470D03*
X003387Y004310D03*
X003017Y004430D03*
X003387Y005060D03*
X002057Y004280D03*
X002047Y004270D03*
X002037Y004260D03*
X002027Y004250D03*
X002017Y004230D03*
X002007Y004220D03*
X003397Y003030D03*
D17*
X003387Y002620D03*
X003387Y002100D03*
X003387Y001300D03*
X004377Y001770D03*
X004997Y002340D03*
X004387Y004570D03*
X002367Y004560D03*
X002377Y001780D03*
D18*
X003377Y001310D03*
X004937Y002170D03*
X002787Y003250D03*
X002567Y003540D03*
X002557Y004670D03*
X004207Y004670D03*
D19*
X004107Y004710D03*
X003387Y002140D03*
X003377Y001320D03*
D20*
X003377Y001330D03*
X004087Y003520D03*
D21*
X003387Y002180D03*
X003387Y001340D03*
D22*
X003387Y001350D03*
D23*
X003377Y001360D03*
X003387Y002230D03*
D24*
X003387Y002250D03*
X003377Y001370D03*
X003387Y004980D03*
D25*
X003387Y004970D03*
X003377Y003820D03*
X003387Y002270D03*
X003377Y001380D03*
D26*
X003382Y001390D03*
X003382Y002300D03*
D27*
X003387Y001400D03*
D28*
X003382Y001410D03*
X003382Y002360D03*
X003392Y003850D03*
D29*
X003382Y004140D03*
X003382Y002380D03*
X003382Y001420D03*
D30*
X003377Y001430D03*
X003387Y002410D03*
X003377Y004060D03*
X003377Y004070D03*
D31*
X003372Y004020D03*
X003372Y004010D03*
X003402Y003870D03*
X003382Y004910D03*
X003382Y002430D03*
X003382Y001440D03*
D32*
X003382Y001450D03*
X003382Y002460D03*
X003372Y003930D03*
X003372Y003940D03*
X003372Y003950D03*
X003382Y004900D03*
D33*
X003382Y002500D03*
X003382Y001460D03*
D34*
X003382Y001470D03*
X003382Y002530D03*
X003382Y003380D03*
D35*
X003382Y002570D03*
X003382Y001480D03*
D36*
X003382Y001490D03*
D37*
X003382Y001500D03*
D38*
X003387Y001510D03*
D39*
X003377Y001520D03*
D40*
X003382Y001530D03*
X003382Y003220D03*
X003382Y003230D03*
X003382Y004820D03*
D41*
X003382Y001540D03*
D42*
X003382Y001550D03*
X003382Y004800D03*
D43*
X003382Y004790D03*
X003382Y003430D03*
X003382Y001560D03*
D44*
X003382Y001570D03*
X003382Y003440D03*
D45*
X003382Y004770D03*
X003382Y001580D03*
D46*
X003382Y001590D03*
X003382Y003450D03*
D47*
X003387Y001600D03*
D48*
X003382Y002170D03*
X004002Y001610D03*
X002762Y001610D03*
X003372Y003780D03*
D49*
X004037Y004730D03*
X003387Y005020D03*
X002727Y001620D03*
X004047Y001620D03*
D50*
X004092Y001630D03*
X002672Y001630D03*
X002662Y004710D03*
X003382Y005030D03*
D51*
X002637Y004700D03*
X004897Y002090D03*
X004897Y002080D03*
X004117Y001640D03*
D52*
X004892Y002070D03*
X002652Y001640D03*
D53*
X002627Y001650D03*
X003387Y002130D03*
X004147Y001650D03*
X004907Y002110D03*
X004167Y003540D03*
D54*
X004922Y002140D03*
X004172Y001660D03*
D55*
X004917Y002130D03*
X003377Y003120D03*
X003367Y003760D03*
X004157Y004690D03*
X002597Y001660D03*
D56*
X002572Y001670D03*
X003982Y003250D03*
X004932Y002160D03*
X004192Y001670D03*
D57*
X004212Y001680D03*
X004942Y002180D03*
X004212Y003560D03*
X004232Y004660D03*
X003002Y004170D03*
X002542Y004660D03*
X002532Y001690D03*
X002552Y001680D03*
D58*
X002512Y001700D03*
X004232Y001690D03*
X004252Y001700D03*
X004952Y002210D03*
X002512Y004650D03*
D59*
X002492Y004640D03*
X002982Y004180D03*
X003712Y004350D03*
X004272Y004640D03*
X004292Y004630D03*
X003382Y003110D03*
X002492Y001710D03*
X004272Y001710D03*
X004962Y002230D03*
X004962Y002240D03*
D60*
X004972Y002260D03*
X004292Y001720D03*
X003382Y003310D03*
X003782Y004180D03*
X004322Y004610D03*
X002982Y004190D03*
X002462Y004620D03*
D61*
X003812Y002800D03*
X004252Y003760D03*
X003442Y001720D03*
X003332Y001720D03*
D62*
X002477Y001720D03*
X004237Y003570D03*
X004307Y004620D03*
X002477Y004630D03*
X004967Y002250D03*
D63*
X004977Y002270D03*
X004977Y002280D03*
X004327Y001740D03*
X004307Y001730D03*
X002517Y003560D03*
X002447Y004610D03*
X003717Y004360D03*
X004337Y004600D03*
X002457Y001730D03*
D64*
X003462Y001730D03*
X003642Y002800D03*
X003642Y002810D03*
X003642Y002820D03*
X003632Y002840D03*
X003632Y002850D03*
X003632Y002860D03*
X003632Y002870D03*
X003642Y002900D03*
X003642Y002910D03*
X003652Y002930D03*
X003972Y002920D03*
X003982Y002900D03*
X003982Y002890D03*
X003982Y002820D03*
X003982Y002810D03*
X003972Y002800D03*
X003972Y002790D03*
X003132Y002810D03*
X003132Y002820D03*
X003132Y002830D03*
X003132Y002840D03*
X003132Y002850D03*
X003132Y002860D03*
X003132Y002870D03*
X003132Y002880D03*
X003132Y002890D03*
X003122Y002910D03*
X003122Y002920D03*
X003122Y002800D03*
X003122Y002790D03*
X002952Y002900D03*
X002792Y002910D03*
X002792Y002920D03*
X002782Y002880D03*
X002782Y002870D03*
X002782Y002860D03*
X002782Y002850D03*
X002782Y002840D03*
X002792Y002810D03*
X002792Y002800D03*
X002802Y002780D03*
X002962Y003120D03*
X002352Y003370D03*
X003012Y004560D03*
X004272Y003750D03*
D65*
X003977Y002910D03*
X003987Y002880D03*
X003987Y002870D03*
X003987Y002860D03*
X003987Y002850D03*
X003987Y002840D03*
X003987Y002830D03*
X003807Y002810D03*
X003637Y002830D03*
X003637Y002880D03*
X003637Y002890D03*
X002957Y002810D03*
X002787Y002820D03*
X002787Y002830D03*
X002787Y002890D03*
X002787Y002900D03*
X002487Y003750D03*
X003377Y004250D03*
X003307Y001730D03*
D66*
X003282Y001740D03*
X003092Y002750D03*
X003102Y002760D03*
X002962Y002830D03*
X002952Y002880D03*
X002832Y002970D03*
X002822Y002960D03*
X002812Y002950D03*
X002822Y002750D03*
X002832Y002740D03*
X003092Y002960D03*
X003102Y002950D03*
X003382Y003300D03*
X003682Y002970D03*
X003672Y002960D03*
X003672Y002750D03*
X003942Y002750D03*
X003952Y002760D03*
X003962Y002770D03*
X003782Y004590D03*
X003382Y005070D03*
D67*
X003722Y004370D03*
X003792Y004190D03*
X004352Y004590D03*
X002972Y004200D03*
X002432Y004600D03*
X003392Y002610D03*
X002442Y001740D03*
X002422Y001750D03*
X004982Y002290D03*
D68*
X004987Y002300D03*
X004987Y002310D03*
X004347Y001750D03*
X003387Y003100D03*
X004257Y003580D03*
X003727Y004380D03*
X002417Y004590D03*
X002407Y001760D03*
D69*
X003512Y001750D03*
X004202Y002310D03*
X003902Y002720D03*
X004402Y003360D03*
X004602Y003170D03*
X004612Y003160D03*
X004622Y003150D03*
X004632Y003130D03*
X004642Y003120D03*
X004652Y003100D03*
X004662Y003090D03*
X004672Y003070D03*
X004752Y002840D03*
X002182Y003190D03*
X002172Y003180D03*
X002162Y003170D03*
X002152Y003150D03*
X002142Y003140D03*
X002132Y003130D03*
X002122Y003110D03*
X002112Y003100D03*
X002102Y003080D03*
D70*
X002107Y003090D03*
X002097Y003070D03*
X002087Y003060D03*
X002087Y003050D03*
X002077Y003040D03*
X002067Y003020D03*
X002057Y003000D03*
X002047Y002970D03*
X002017Y002840D03*
X002127Y003120D03*
X002357Y003360D03*
X002437Y003720D03*
X003007Y004550D03*
X004307Y003730D03*
X004627Y003140D03*
X004647Y003110D03*
X004667Y003080D03*
X004677Y003060D03*
X004687Y003050D03*
X004687Y003040D03*
X004717Y002980D03*
X004757Y002850D03*
X003387Y002060D03*
X003257Y001750D03*
X002567Y002310D03*
X003067Y002730D03*
D71*
X004062Y003130D03*
X004992Y002330D03*
X004992Y002320D03*
X004362Y001760D03*
X002392Y001770D03*
X002972Y004210D03*
X002392Y004580D03*
X002382Y004570D03*
X003802Y004200D03*
X004372Y004580D03*
D72*
X004327Y003710D03*
X004527Y003250D03*
X004537Y003240D03*
X004547Y003230D03*
X004507Y002590D03*
X004497Y002580D03*
X004487Y002570D03*
X004477Y002560D03*
X004467Y002550D03*
X004457Y002540D03*
X004447Y002530D03*
X004417Y002260D03*
X004407Y002250D03*
X004397Y002240D03*
X003537Y001760D03*
X003227Y001760D03*
X002357Y002250D03*
X002347Y002260D03*
X002337Y002270D03*
X002357Y002500D03*
X002347Y002510D03*
X002337Y002520D03*
X002327Y002530D03*
X002287Y002560D03*
X002277Y002570D03*
X002267Y002580D03*
X002257Y002590D03*
X002247Y002600D03*
X002237Y002610D03*
X002227Y002620D03*
X002217Y002630D03*
X002027Y002810D03*
X002227Y003230D03*
X002237Y003240D03*
X002247Y003250D03*
X002257Y003260D03*
X002417Y003700D03*
X003007Y004540D03*
X002587Y002810D03*
D73*
X002202Y002640D03*
X002192Y002650D03*
X002182Y002660D03*
X002172Y002670D03*
X002162Y002680D03*
X002152Y002690D03*
X002372Y002240D03*
X002382Y002230D03*
X002392Y002220D03*
X002402Y002210D03*
X002272Y003270D03*
X003562Y001770D03*
X004352Y002200D03*
X004362Y002210D03*
X004372Y002220D03*
X004382Y002230D03*
X004522Y002600D03*
X004532Y002610D03*
X004542Y002620D03*
X004552Y002630D03*
X004562Y002640D03*
X004572Y002650D03*
X004582Y002660D03*
X004592Y002670D03*
X004602Y002680D03*
X004742Y002810D03*
X004512Y003260D03*
D74*
X004497Y003270D03*
X004397Y003350D03*
X004337Y003700D03*
X003777Y004570D03*
X003387Y004260D03*
X003227Y004350D03*
X002367Y003350D03*
X002287Y003280D03*
X002117Y002720D03*
X002127Y002710D03*
X002137Y002700D03*
X002417Y002200D03*
X002427Y002190D03*
X002437Y002180D03*
X002467Y002160D03*
X002957Y002670D03*
X002957Y003040D03*
X003807Y002670D03*
X004317Y002170D03*
X004327Y002180D03*
X004337Y002190D03*
X004617Y002690D03*
X004627Y002700D03*
X004637Y002710D03*
X004737Y002800D03*
X003207Y001770D03*
D75*
X002362Y001790D03*
X003382Y003090D03*
X002722Y003260D03*
X002492Y003570D03*
X002962Y004220D03*
X002352Y004550D03*
X003382Y005050D03*
X003732Y004390D03*
X004402Y004560D03*
X004042Y003260D03*
X005002Y002360D03*
X005002Y002350D03*
X004392Y001780D03*
D76*
X004272Y002140D03*
X004302Y002160D03*
X004232Y002320D03*
X004652Y002720D03*
X004662Y002730D03*
X004692Y002750D03*
X004702Y002760D03*
X004712Y002770D03*
X004722Y002780D03*
X004732Y002790D03*
X004482Y003280D03*
X003812Y003040D03*
X003582Y001780D03*
X002482Y002150D03*
X002452Y002170D03*
X002102Y002730D03*
X002092Y002740D03*
X002082Y002750D03*
X002032Y002800D03*
X002302Y003290D03*
X002392Y003680D03*
X002402Y003690D03*
X003012Y004530D03*
D77*
X002387Y003670D03*
X002317Y003300D03*
X002037Y002790D03*
X002047Y002780D03*
X002057Y002770D03*
X002067Y002760D03*
X002537Y002320D03*
X002497Y002140D03*
X002507Y002130D03*
X002527Y002120D03*
X002537Y002110D03*
X003187Y001780D03*
X004217Y002100D03*
X004247Y002120D03*
X004257Y002130D03*
X004287Y002150D03*
X004197Y002750D03*
X004207Y002790D03*
X004217Y002800D03*
X004467Y003290D03*
X004447Y003300D03*
X004677Y002740D03*
D78*
X005007Y002380D03*
X005007Y002370D03*
X004417Y001800D03*
X004407Y001790D03*
X002347Y001800D03*
X003807Y004210D03*
X003737Y004400D03*
X004417Y004550D03*
X004427Y004540D03*
X004447Y004530D03*
X003037Y004360D03*
X002337Y004540D03*
X002327Y004530D03*
D79*
X003012Y004520D03*
X003782Y004560D03*
X003352Y003740D03*
X003812Y003030D03*
X003812Y002680D03*
X004182Y002710D03*
X004182Y002720D03*
X004192Y002730D03*
X004192Y002740D03*
X004202Y002760D03*
X004202Y002770D03*
X004202Y002780D03*
X004232Y002110D03*
X004202Y002090D03*
X004192Y002080D03*
X004172Y002070D03*
X004142Y002050D03*
X003602Y001790D03*
X002962Y002680D03*
X002572Y002770D03*
X002562Y002790D03*
X002562Y002800D03*
X002552Y002100D03*
X002562Y002090D03*
X002582Y002080D03*
X002592Y002070D03*
X004352Y003690D03*
X004362Y003680D03*
D80*
X004367Y003670D03*
X004227Y002910D03*
X004227Y002900D03*
X004227Y002890D03*
X004177Y002700D03*
X004167Y002690D03*
X004167Y002680D03*
X004157Y002060D03*
X004127Y002040D03*
X004107Y002030D03*
X003167Y001790D03*
X002647Y002040D03*
X002627Y002050D03*
X002607Y002060D03*
X002587Y002730D03*
X002587Y002740D03*
X002577Y002750D03*
X002577Y002760D03*
X002567Y002780D03*
X002957Y003030D03*
X002577Y003300D03*
X002377Y003660D03*
D81*
X002382Y003340D03*
X002552Y002900D03*
X002662Y002030D03*
X002682Y002020D03*
X002692Y002010D03*
X003622Y001800D03*
X004052Y002000D03*
X004072Y002010D03*
X004092Y002020D03*
X004152Y002660D03*
X004162Y002670D03*
X004222Y002920D03*
X004222Y002930D03*
X004192Y003300D03*
X004382Y003340D03*
D82*
X004367Y003660D03*
X004217Y002950D03*
X004217Y002940D03*
X004257Y002330D03*
X003147Y001800D03*
X002737Y001990D03*
X002717Y002000D03*
X002957Y002690D03*
X002957Y003020D03*
X002557Y002920D03*
X002557Y002910D03*
X002597Y002720D03*
X002607Y002700D03*
X002377Y003650D03*
X003017Y004510D03*
X003387Y004270D03*
X003777Y004550D03*
D83*
X003812Y004220D03*
X004462Y004520D03*
X004282Y003590D03*
X003382Y002630D03*
X004432Y001810D03*
X005012Y002390D03*
X002962Y004230D03*
X002312Y004520D03*
X002322Y001820D03*
X002332Y001810D03*
D84*
X002777Y001970D03*
X002627Y002670D03*
X002617Y002680D03*
X002557Y002940D03*
X003387Y002900D03*
X004127Y002630D03*
X004137Y002640D03*
X004207Y002970D03*
X004207Y002980D03*
X004007Y001980D03*
X003987Y001970D03*
X003977Y001960D03*
X003647Y001810D03*
X003017Y004500D03*
D85*
X003812Y003020D03*
X003812Y002690D03*
X004142Y002650D03*
X004212Y002960D03*
X004032Y001990D03*
X003122Y001810D03*
X002752Y001980D03*
X002612Y002690D03*
X002602Y002710D03*
X002562Y002930D03*
D86*
X002477Y003580D03*
X003037Y004370D03*
X003737Y004410D03*
X004477Y004510D03*
X004487Y004500D03*
X003387Y003080D03*
X004457Y001830D03*
X004447Y001820D03*
X005017Y002400D03*
X005017Y002410D03*
X002307Y001830D03*
X002297Y004510D03*
D87*
X002382Y003640D03*
X002562Y002980D03*
X002562Y002970D03*
X002562Y002960D03*
X002562Y002950D03*
X002632Y002660D03*
X002792Y001960D03*
X003102Y001820D03*
X003662Y001820D03*
X003952Y001950D03*
X003812Y002700D03*
X003812Y003010D03*
X004202Y002990D03*
X003382Y002930D03*
X003382Y002920D03*
X003772Y004540D03*
D88*
X003772Y004530D03*
X003392Y004280D03*
X004372Y003330D03*
X004162Y003290D03*
X004202Y003010D03*
X003812Y003000D03*
X003382Y002940D03*
X003392Y002780D03*
X003392Y002770D03*
X004102Y002610D03*
X003902Y001930D03*
X003882Y001920D03*
X003682Y001830D03*
X002862Y001930D03*
X002572Y003000D03*
D89*
X002567Y002990D03*
X002607Y003290D03*
X002397Y003330D03*
X002957Y003010D03*
X002957Y002700D03*
X002647Y002640D03*
X002637Y002650D03*
X002817Y001950D03*
X002837Y001940D03*
X003087Y001830D03*
X003927Y001940D03*
X004117Y002620D03*
X004197Y003000D03*
X004367Y003650D03*
X003387Y002910D03*
X003387Y002790D03*
X003017Y004490D03*
D90*
X003032Y004380D03*
X002952Y004240D03*
X002282Y004500D03*
X002272Y004490D03*
X003392Y003070D03*
X003382Y002640D03*
X002292Y001840D03*
X002282Y001850D03*
X004472Y001840D03*
X005022Y002420D03*
X003822Y004230D03*
X004502Y004490D03*
D91*
X004507Y004480D03*
X003747Y004420D03*
X003397Y004340D03*
X003357Y003750D03*
X003387Y003060D03*
X004297Y003600D03*
X005027Y002450D03*
X005027Y002440D03*
X005027Y002430D03*
X004497Y001860D03*
X004487Y001850D03*
X002267Y001860D03*
X002257Y001870D03*
X002237Y004460D03*
X002247Y004470D03*
X002257Y004480D03*
D92*
X001722Y003670D03*
X001712Y003640D03*
X001712Y003630D03*
X001702Y003610D03*
X001702Y003600D03*
X001702Y003590D03*
X001692Y003570D03*
X001692Y003560D03*
X001692Y003550D03*
X001692Y003540D03*
X001682Y003530D03*
X001682Y003520D03*
X001682Y003510D03*
X001682Y003500D03*
X001672Y003470D03*
X001672Y003460D03*
X001672Y003450D03*
X001662Y003400D03*
X001662Y003390D03*
X001662Y003380D03*
X001662Y003370D03*
X001662Y003360D03*
X001652Y003290D03*
X001652Y003280D03*
X001652Y003270D03*
X001652Y003260D03*
X001652Y003250D03*
X001652Y003240D03*
X001652Y003230D03*
X001652Y003220D03*
X001652Y003210D03*
X001652Y003200D03*
X001652Y003190D03*
X001652Y003180D03*
X001652Y003170D03*
X001652Y003160D03*
X001652Y003150D03*
X001652Y003140D03*
X001652Y003130D03*
X001652Y003120D03*
X001652Y003110D03*
X001652Y003100D03*
X001652Y003090D03*
X001652Y003080D03*
X001652Y003070D03*
X001652Y003060D03*
X001662Y002990D03*
X001662Y002980D03*
X001662Y002970D03*
X001662Y002960D03*
X001662Y002950D03*
X001672Y002890D03*
X001672Y002880D03*
X001682Y002840D03*
X001682Y002830D03*
X001682Y002820D03*
X001692Y002810D03*
X001692Y002800D03*
X001692Y002790D03*
X001692Y002780D03*
X001702Y002760D03*
X001702Y002750D03*
X001702Y002740D03*
X001702Y002730D03*
X001712Y002720D03*
X001712Y002710D03*
X001722Y002680D03*
X002582Y003030D03*
X002672Y002610D03*
X002912Y001910D03*
X003052Y001850D03*
X003852Y001910D03*
X003392Y002750D03*
X003382Y002960D03*
X003382Y002970D03*
X003812Y002990D03*
X004182Y003050D03*
X004192Y003040D03*
X005102Y003380D03*
X005102Y003390D03*
X005102Y003400D03*
X005102Y003410D03*
X005102Y003420D03*
X005102Y003430D03*
X005092Y003450D03*
X005092Y003460D03*
X005092Y003470D03*
X005092Y003480D03*
X005092Y003490D03*
X005082Y003520D03*
X005082Y003530D03*
X005082Y003540D03*
X005082Y003550D03*
X005072Y003560D03*
X005072Y003570D03*
X005072Y003580D03*
X005072Y003590D03*
X005062Y003600D03*
X005062Y003610D03*
X005062Y003620D03*
X005062Y003630D03*
X005052Y003640D03*
X005052Y003650D03*
X005042Y003680D03*
X005112Y003370D03*
X005112Y003360D03*
X005112Y003350D03*
X005112Y003340D03*
X005112Y003330D03*
X005112Y003320D03*
X005112Y003310D03*
X005112Y003300D03*
X005112Y003290D03*
X005112Y003280D03*
X005112Y003070D03*
X005112Y003060D03*
X005112Y003050D03*
X005112Y003040D03*
X005112Y003030D03*
X005112Y003020D03*
X005112Y003010D03*
X005112Y003000D03*
X005112Y002990D03*
X005112Y002980D03*
X005112Y002970D03*
X003772Y004520D03*
D93*
X003762Y004510D03*
X003392Y004290D03*
X003012Y004460D03*
X001812Y003910D03*
X001792Y003860D03*
X001782Y003840D03*
X001782Y003830D03*
X001772Y003820D03*
X001772Y003810D03*
X001762Y003800D03*
X001762Y003790D03*
X001752Y003770D03*
X001752Y003760D03*
X001742Y003730D03*
X001732Y003710D03*
X002592Y003060D03*
X003382Y002990D03*
X003382Y002070D03*
X003032Y001860D03*
X002942Y001900D03*
X003732Y001860D03*
X003752Y001870D03*
X005102Y002840D03*
X005102Y002850D03*
X005102Y002860D03*
X005102Y002870D03*
X005102Y002880D03*
X005102Y002890D03*
X005102Y002900D03*
X005022Y003750D03*
X005012Y003770D03*
X005002Y003800D03*
X004992Y003820D03*
X004992Y003830D03*
X004982Y003840D03*
X004982Y003850D03*
X004972Y003860D03*
X004972Y003870D03*
X004962Y003890D03*
X001782Y002520D03*
X001782Y002510D03*
X001772Y002530D03*
X001772Y002540D03*
X001762Y002550D03*
X001762Y002560D03*
X001752Y002580D03*
X001752Y002590D03*
X001742Y002610D03*
X001742Y002620D03*
X001732Y002640D03*
X001792Y002490D03*
X001802Y002460D03*
D94*
X002232Y001890D03*
X002242Y001880D03*
X003382Y002090D03*
X003382Y002650D03*
X004512Y001870D03*
X004522Y001880D03*
X005032Y002460D03*
X005032Y002470D03*
X003822Y004240D03*
X004522Y004470D03*
X004532Y004460D03*
X004542Y004450D03*
X003032Y004390D03*
X002952Y004250D03*
X002222Y004450D03*
X002212Y004440D03*
D95*
X001837Y003960D03*
X001837Y003950D03*
X001827Y003940D03*
X001827Y003930D03*
X001817Y003920D03*
X001807Y003900D03*
X001807Y003890D03*
X001797Y003880D03*
X001797Y003870D03*
X001787Y003850D03*
X002407Y003620D03*
X002937Y004340D03*
X002937Y004350D03*
X003767Y004500D03*
X003847Y004340D03*
X004917Y003980D03*
X004927Y003960D03*
X004937Y003950D03*
X004937Y003940D03*
X004947Y003930D03*
X004947Y003920D03*
X004957Y003910D03*
X004957Y003900D03*
X004967Y003880D03*
X004167Y003070D03*
X003387Y003000D03*
X003387Y002730D03*
X003387Y002720D03*
X003797Y001890D03*
X003017Y001870D03*
X001837Y002390D03*
X001827Y002410D03*
X001817Y002420D03*
X001817Y002430D03*
X001807Y002440D03*
X001807Y002450D03*
X001797Y002470D03*
X001797Y002480D03*
X001787Y002500D03*
X005097Y002800D03*
X005097Y002810D03*
X005097Y002820D03*
X005097Y002830D03*
D96*
X005092Y002790D03*
X005092Y002780D03*
X005092Y002770D03*
X005092Y002760D03*
X004352Y003320D03*
X004162Y003080D03*
X004062Y002590D03*
X003772Y001880D03*
X003002Y001880D03*
X002972Y001890D03*
X001892Y002290D03*
X001882Y002310D03*
X001872Y002330D03*
X001862Y002340D03*
X001862Y002350D03*
X001852Y002360D03*
X001852Y002370D03*
X001842Y002380D03*
X001832Y002400D03*
X002602Y003070D03*
X002642Y003280D03*
X002412Y003320D03*
X001842Y003970D03*
X001852Y003980D03*
X001852Y003990D03*
X001862Y004000D03*
X001872Y004010D03*
X001872Y004020D03*
X001882Y004030D03*
X001882Y004040D03*
X001892Y004050D03*
X003012Y004450D03*
X004882Y004040D03*
X004892Y004030D03*
X004892Y004020D03*
X004902Y004010D03*
X004902Y004000D03*
X004912Y003990D03*
X004922Y003970D03*
D97*
X004577Y004420D03*
X004567Y004430D03*
X004557Y004440D03*
X003827Y004250D03*
X003747Y004430D03*
X003397Y004330D03*
X002947Y004260D03*
X002207Y004430D03*
X002197Y001920D03*
X002207Y001910D03*
X002217Y001900D03*
X004537Y001890D03*
X004547Y001900D03*
X004557Y001910D03*
X005037Y002480D03*
X005037Y002490D03*
D98*
X005042Y002500D03*
X005042Y002510D03*
X004592Y001940D03*
X004582Y001930D03*
X004572Y001920D03*
X002452Y003590D03*
X002182Y004410D03*
X002192Y004420D03*
X003022Y004400D03*
X003752Y004440D03*
X003832Y004260D03*
X004592Y004410D03*
X004602Y004400D03*
X004612Y004390D03*
D99*
X004617Y004380D03*
X004307Y003610D03*
X003387Y003050D03*
X003377Y002660D03*
X002657Y003120D03*
X002947Y004270D03*
X002167Y004400D03*
X002157Y004390D03*
X002147Y004380D03*
X002137Y004370D03*
X002167Y001950D03*
X002177Y001940D03*
X002187Y001930D03*
X004607Y001950D03*
X005047Y002520D03*
X005047Y002530D03*
D100*
X005052Y002540D03*
X005052Y002550D03*
X004652Y002000D03*
X004642Y001990D03*
X004632Y001980D03*
X004622Y001970D03*
X004612Y001960D03*
X004092Y003270D03*
X003832Y004270D03*
X003752Y004450D03*
X003392Y004320D03*
X003022Y004410D03*
X002942Y004280D03*
X002132Y004360D03*
X002122Y004350D03*
X002112Y004340D03*
X002102Y004330D03*
X002672Y003270D03*
X002642Y003110D03*
X002122Y001990D03*
X002132Y001980D03*
X002142Y001970D03*
X002152Y001960D03*
X004632Y004370D03*
X004642Y004360D03*
X004652Y004350D03*
D101*
X004657Y004340D03*
X004667Y004330D03*
X004677Y004320D03*
X004687Y004310D03*
X003837Y004280D03*
X002947Y004290D03*
X002437Y003600D03*
X003387Y003040D03*
X004127Y003120D03*
X004357Y002340D03*
X004667Y002020D03*
X004657Y002010D03*
X005057Y002560D03*
X005057Y002570D03*
X005057Y002580D03*
X002417Y002330D03*
X002407Y002340D03*
X002397Y002350D03*
X002097Y002020D03*
X002107Y002010D03*
X002117Y002000D03*
D102*
X002082Y002030D03*
X002392Y002360D03*
X002432Y003310D03*
X002062Y004290D03*
X002072Y004300D03*
X002082Y004310D03*
X002092Y004320D03*
X002942Y004300D03*
X003022Y004420D03*
X003752Y004460D03*
X004692Y004300D03*
X004702Y004290D03*
X004712Y004280D03*
X004722Y004270D03*
X004332Y003310D03*
X005062Y002600D03*
X005062Y002590D03*
X004692Y002040D03*
X004682Y002030D03*
X004382Y002360D03*
X004372Y002350D03*
X003382Y002670D03*
D103*
X003382Y002680D03*
X003382Y002080D03*
X004412Y002390D03*
X004422Y002400D03*
X004432Y002410D03*
X005072Y002640D03*
X005072Y002650D03*
X005072Y002660D03*
X004142Y003110D03*
X004792Y004180D03*
X004782Y004190D03*
X004762Y004220D03*
X004752Y004230D03*
X003842Y004300D03*
X002942Y004310D03*
X002022Y004240D03*
X002002Y004210D03*
X001992Y004200D03*
X002622Y003100D03*
X002352Y002400D03*
X002022Y002110D03*
X002012Y002120D03*
X002002Y002130D03*
X002032Y002090D03*
X002042Y002080D03*
D104*
X004132Y004700D03*
X004902Y002100D03*
D105*
X004957Y002220D03*
X003387Y002110D03*
X003377Y002600D03*
X002537Y003550D03*
X003777Y004170D03*
D106*
X002612Y004690D03*
X002592Y003530D03*
X004912Y002120D03*
D107*
X004927Y002150D03*
X004187Y003550D03*
X003747Y004160D03*
X004187Y004680D03*
X003017Y004160D03*
X002577Y004680D03*
X003387Y002120D03*
D108*
X003387Y002690D03*
X004147Y003100D03*
X004437Y002420D03*
X005077Y002670D03*
X005077Y002680D03*
X004807Y004160D03*
X004797Y004170D03*
X004777Y004200D03*
X004767Y004210D03*
X002617Y003090D03*
X002327Y002420D03*
X002337Y002410D03*
X001997Y002140D03*
X001987Y002150D03*
X001977Y002160D03*
X001967Y002180D03*
X001957Y002190D03*
X001937Y002220D03*
X001967Y004170D03*
X001977Y004180D03*
X001987Y004190D03*
D109*
X003362Y003770D03*
X003382Y002150D03*
D110*
X003382Y002160D03*
X003382Y003320D03*
X002672Y003510D03*
X002732Y004730D03*
D111*
X003012Y004440D03*
X002942Y004320D03*
X003392Y004300D03*
X003762Y004480D03*
X003842Y004320D03*
X003842Y004310D03*
X004812Y004150D03*
X004822Y004140D03*
X004832Y004130D03*
X004832Y004120D03*
X004842Y004110D03*
X004852Y004090D03*
X004152Y003090D03*
X003392Y003020D03*
X002612Y003080D03*
X002422Y003610D03*
X001912Y004090D03*
X001932Y004120D03*
X001942Y004130D03*
X001942Y004140D03*
X001952Y004150D03*
X001962Y004160D03*
X001902Y002270D03*
X001912Y002260D03*
X001922Y002240D03*
X001932Y002230D03*
X001942Y002210D03*
X001952Y002200D03*
X001972Y002170D03*
X005082Y002690D03*
X005082Y002700D03*
X005082Y002710D03*
D112*
X004947Y002200D03*
X004947Y002190D03*
X004247Y004650D03*
X003387Y005040D03*
D113*
X003372Y003790D03*
X003382Y002190D03*
D114*
X003382Y002200D03*
X003382Y005000D03*
D115*
X003387Y002210D03*
D116*
X003382Y002220D03*
D117*
X003382Y002240D03*
D118*
X003387Y002700D03*
X003387Y002710D03*
X003387Y003010D03*
X004127Y003280D03*
X004337Y003630D03*
X004867Y004060D03*
X004867Y004070D03*
X004857Y004080D03*
X004847Y004100D03*
X004877Y004050D03*
X003847Y004330D03*
X003767Y004490D03*
X002937Y004330D03*
X001927Y004110D03*
X001917Y004100D03*
X001907Y004080D03*
X001897Y004070D03*
X001897Y004060D03*
X001877Y002320D03*
X001887Y002300D03*
X001897Y002280D03*
X001917Y002250D03*
X005087Y002720D03*
X005087Y002730D03*
X005087Y002740D03*
X005087Y002750D03*
D119*
X003382Y002260D03*
D120*
X003812Y003050D03*
X004392Y002480D03*
X004402Y002490D03*
X004412Y002500D03*
X004422Y002510D03*
X004432Y002520D03*
X004462Y002300D03*
X004452Y002290D03*
X004442Y002280D03*
X004432Y002270D03*
X004742Y002820D03*
X004592Y003180D03*
X004582Y003190D03*
X004572Y003200D03*
X004562Y003210D03*
X004552Y003220D03*
X002392Y002470D03*
X002382Y002480D03*
X002372Y002490D03*
X002312Y002540D03*
X002302Y002550D03*
X002292Y002310D03*
X002302Y002300D03*
X002312Y002290D03*
X002322Y002280D03*
X002022Y002820D03*
X002202Y003210D03*
X002212Y003220D03*
D121*
X003382Y002280D03*
D122*
X003382Y002290D03*
X003382Y004960D03*
D123*
X003777Y004580D03*
X004317Y003720D03*
X004747Y002830D03*
X004377Y002470D03*
X004367Y002460D03*
X004347Y002450D03*
X004337Y002440D03*
X004327Y002430D03*
X004487Y002330D03*
X004487Y002320D03*
X004477Y002310D03*
X003727Y002720D03*
X003047Y002720D03*
X002867Y002720D03*
X002957Y003050D03*
X002407Y002460D03*
X002417Y002450D03*
X002427Y002440D03*
X002437Y002430D03*
X002287Y002320D03*
X002017Y002830D03*
X002157Y003160D03*
X002187Y003200D03*
X002427Y003710D03*
D124*
X003382Y002310D03*
D125*
X003382Y002320D03*
X003382Y003350D03*
X003382Y004950D03*
D126*
X003382Y002330D03*
D127*
X003382Y002340D03*
D128*
X003382Y002350D03*
D129*
X003382Y002370D03*
D130*
X003382Y002390D03*
X003382Y003360D03*
X003392Y003860D03*
D131*
X003377Y004080D03*
X003377Y004090D03*
X003377Y004100D03*
X003377Y004110D03*
X003387Y002400D03*
D132*
X003382Y002420D03*
X003372Y004050D03*
D133*
X002142Y002430D03*
X004622Y002430D03*
D134*
X003387Y002440D03*
X003377Y004000D03*
D135*
X003372Y003990D03*
X003372Y003980D03*
X003382Y002450D03*
D136*
X003382Y002470D03*
X003382Y003890D03*
X003372Y003900D03*
X003372Y003910D03*
X003372Y003920D03*
D137*
X003387Y002480D03*
D138*
X003382Y002490D03*
X003382Y004890D03*
D139*
X003387Y002510D03*
D140*
X003387Y002520D03*
D141*
X003387Y002540D03*
D142*
X003382Y002550D03*
X003382Y004870D03*
D143*
X003387Y002560D03*
D144*
X003387Y002580D03*
D145*
X003132Y002590D03*
D146*
X002957Y002650D03*
X003817Y002650D03*
X004127Y002880D03*
D147*
X003922Y002980D03*
X003802Y002860D03*
X003812Y002850D03*
X003812Y002840D03*
X003812Y002830D03*
X003922Y002730D03*
X003812Y002660D03*
X003072Y002980D03*
X002852Y002980D03*
X002842Y002730D03*
X002072Y003030D03*
X002062Y003010D03*
X002052Y002990D03*
X002052Y002980D03*
X002042Y002960D03*
X002042Y002950D03*
X002032Y002940D03*
X002032Y002930D03*
X002032Y002920D03*
X002022Y002910D03*
X002022Y002900D03*
X002012Y002880D03*
X002012Y002870D03*
X002012Y002860D03*
X002012Y002850D03*
X002452Y003730D03*
X004692Y003030D03*
X004702Y003020D03*
X004702Y003010D03*
X004712Y003000D03*
X004712Y002990D03*
X004722Y002970D03*
X004722Y002960D03*
X004732Y002950D03*
X004732Y002940D03*
X004742Y002920D03*
X004742Y002910D03*
X004752Y002890D03*
X004752Y002880D03*
X004752Y002860D03*
D148*
X004407Y003370D03*
X003967Y002940D03*
X003967Y002930D03*
X003957Y002950D03*
X003947Y002960D03*
X003807Y002890D03*
X003667Y002950D03*
X003657Y002940D03*
X003647Y002920D03*
X003647Y002790D03*
X003657Y002780D03*
X003657Y002770D03*
X003667Y002760D03*
X003967Y002780D03*
X003127Y002900D03*
X003117Y002930D03*
X003107Y002940D03*
X002957Y002890D03*
X002957Y002820D03*
X002817Y002760D03*
X002807Y002770D03*
X002797Y002790D03*
X002797Y002930D03*
X002807Y002940D03*
X003107Y002770D03*
X003117Y002780D03*
X002467Y003740D03*
D149*
X002497Y003760D03*
X002347Y003380D03*
X002447Y002890D03*
X003437Y002800D03*
D150*
X003382Y002800D03*
X002452Y002810D03*
X004242Y003770D03*
D151*
X003802Y002900D03*
D152*
X003817Y003060D03*
X004417Y003380D03*
X002957Y003060D03*
X002957Y002910D03*
D153*
X003097Y003130D03*
X003387Y003840D03*
D154*
X003387Y003160D03*
X003387Y003150D03*
X003387Y003140D03*
X003387Y004810D03*
D155*
X003382Y003200D03*
X003382Y003190D03*
X003382Y003180D03*
X003382Y003170D03*
D156*
X003387Y003210D03*
D157*
X003387Y003240D03*
D158*
X003382Y003330D03*
D159*
X003382Y003340D03*
D160*
X003377Y003370D03*
D161*
X003382Y003390D03*
D162*
X003382Y003400D03*
X003382Y004840D03*
D163*
X003382Y003410D03*
D164*
X003377Y003420D03*
D165*
X003382Y003460D03*
D166*
X003382Y003470D03*
D167*
X003382Y003480D03*
D168*
X003382Y003490D03*
D169*
X003377Y003800D03*
X003957Y003500D03*
X003387Y004990D03*
D170*
X002757Y003500D03*
D171*
X004047Y003510D03*
X003387Y005010D03*
D172*
X002637Y003520D03*
D173*
X004132Y003530D03*
D174*
X003382Y003810D03*
D175*
X003387Y003830D03*
D176*
X003387Y003880D03*
X003377Y003960D03*
X003377Y003970D03*
D177*
X003377Y004030D03*
X003377Y004040D03*
D178*
X003377Y004120D03*
X003377Y004130D03*
D179*
X003377Y004150D03*
X003387Y004930D03*
D180*
X004067Y004720D03*
X002697Y004720D03*
D181*
X002782Y004740D03*
X003992Y004740D03*
D182*
X003382Y004750D03*
D183*
X003387Y004760D03*
D184*
X003387Y004780D03*
D185*
X003382Y004830D03*
D186*
X003387Y004850D03*
D187*
X003387Y004860D03*
D188*
X003382Y004880D03*
D189*
X003382Y004920D03*
D190*
X003387Y004940D03*
M02*
