G75*
G70*
%OFA0B0*%
%FSLAX24Y24*%
%IPPOS*%
%LPD*%
%AMOC8*
5,1,8,0,0,1.08239X$1,22.5*
%
%ADD10C,0.0500*%
%ADD11C,0.0671*%
%ADD12R,0.0513X0.0474*%
%ADD13R,0.1104X0.0336*%
%ADD14C,0.0820*%
D10*
X000494Y000850D02*
X000496Y000887D01*
X000502Y000924D01*
X000511Y000960D01*
X000525Y000995D01*
X000542Y001028D01*
X000562Y001059D01*
X000585Y001088D01*
X000612Y001115D01*
X000641Y001138D01*
X000672Y001158D01*
X000705Y001175D01*
X000740Y001189D01*
X000776Y001198D01*
X000813Y001204D01*
X000850Y001206D01*
X000887Y001204D01*
X000924Y001198D01*
X000960Y001189D01*
X000995Y001175D01*
X001028Y001158D01*
X001059Y001138D01*
X001088Y001115D01*
X001115Y001088D01*
X001138Y001059D01*
X001158Y001028D01*
X001175Y000995D01*
X001189Y000960D01*
X001198Y000924D01*
X001204Y000887D01*
X001206Y000850D01*
X001204Y000813D01*
X001198Y000776D01*
X001189Y000740D01*
X001175Y000705D01*
X001158Y000672D01*
X001138Y000641D01*
X001115Y000612D01*
X001088Y000585D01*
X001059Y000562D01*
X001028Y000542D01*
X000995Y000525D01*
X000960Y000511D01*
X000924Y000502D01*
X000887Y000496D01*
X000850Y000494D01*
X000813Y000496D01*
X000776Y000502D01*
X000740Y000511D01*
X000705Y000525D01*
X000672Y000542D01*
X000641Y000562D01*
X000612Y000585D01*
X000585Y000612D01*
X000562Y000641D01*
X000542Y000672D01*
X000525Y000705D01*
X000511Y000740D01*
X000502Y000776D01*
X000496Y000813D01*
X000494Y000850D01*
X004794Y000850D02*
X004796Y000887D01*
X004802Y000924D01*
X004811Y000960D01*
X004825Y000995D01*
X004842Y001028D01*
X004862Y001059D01*
X004885Y001088D01*
X004912Y001115D01*
X004941Y001138D01*
X004972Y001158D01*
X005005Y001175D01*
X005040Y001189D01*
X005076Y001198D01*
X005113Y001204D01*
X005150Y001206D01*
X005187Y001204D01*
X005224Y001198D01*
X005260Y001189D01*
X005295Y001175D01*
X005328Y001158D01*
X005359Y001138D01*
X005388Y001115D01*
X005415Y001088D01*
X005438Y001059D01*
X005458Y001028D01*
X005475Y000995D01*
X005489Y000960D01*
X005498Y000924D01*
X005504Y000887D01*
X005506Y000850D01*
X005504Y000813D01*
X005498Y000776D01*
X005489Y000740D01*
X005475Y000705D01*
X005458Y000672D01*
X005438Y000641D01*
X005415Y000612D01*
X005388Y000585D01*
X005359Y000562D01*
X005328Y000542D01*
X005295Y000525D01*
X005260Y000511D01*
X005224Y000502D01*
X005187Y000496D01*
X005150Y000494D01*
X005113Y000496D01*
X005076Y000502D01*
X005040Y000511D01*
X005005Y000525D01*
X004972Y000542D01*
X004941Y000562D01*
X004912Y000585D01*
X004885Y000612D01*
X004862Y000641D01*
X004842Y000672D01*
X004825Y000705D01*
X004811Y000740D01*
X004802Y000776D01*
X004796Y000813D01*
X004794Y000850D01*
X004794Y006650D02*
X004796Y006687D01*
X004802Y006724D01*
X004811Y006760D01*
X004825Y006795D01*
X004842Y006828D01*
X004862Y006859D01*
X004885Y006888D01*
X004912Y006915D01*
X004941Y006938D01*
X004972Y006958D01*
X005005Y006975D01*
X005040Y006989D01*
X005076Y006998D01*
X005113Y007004D01*
X005150Y007006D01*
X005187Y007004D01*
X005224Y006998D01*
X005260Y006989D01*
X005295Y006975D01*
X005328Y006958D01*
X005359Y006938D01*
X005388Y006915D01*
X005415Y006888D01*
X005438Y006859D01*
X005458Y006828D01*
X005475Y006795D01*
X005489Y006760D01*
X005498Y006724D01*
X005504Y006687D01*
X005506Y006650D01*
X005504Y006613D01*
X005498Y006576D01*
X005489Y006540D01*
X005475Y006505D01*
X005458Y006472D01*
X005438Y006441D01*
X005415Y006412D01*
X005388Y006385D01*
X005359Y006362D01*
X005328Y006342D01*
X005295Y006325D01*
X005260Y006311D01*
X005224Y006302D01*
X005187Y006296D01*
X005150Y006294D01*
X005113Y006296D01*
X005076Y006302D01*
X005040Y006311D01*
X005005Y006325D01*
X004972Y006342D01*
X004941Y006362D01*
X004912Y006385D01*
X004885Y006412D01*
X004862Y006441D01*
X004842Y006472D01*
X004825Y006505D01*
X004811Y006540D01*
X004802Y006576D01*
X004796Y006613D01*
X004794Y006650D01*
X000494Y006650D02*
X000496Y006687D01*
X000502Y006724D01*
X000511Y006760D01*
X000525Y006795D01*
X000542Y006828D01*
X000562Y006859D01*
X000585Y006888D01*
X000612Y006915D01*
X000641Y006938D01*
X000672Y006958D01*
X000705Y006975D01*
X000740Y006989D01*
X000776Y006998D01*
X000813Y007004D01*
X000850Y007006D01*
X000887Y007004D01*
X000924Y006998D01*
X000960Y006989D01*
X000995Y006975D01*
X001028Y006958D01*
X001059Y006938D01*
X001088Y006915D01*
X001115Y006888D01*
X001138Y006859D01*
X001158Y006828D01*
X001175Y006795D01*
X001189Y006760D01*
X001198Y006724D01*
X001204Y006687D01*
X001206Y006650D01*
X001204Y006613D01*
X001198Y006576D01*
X001189Y006540D01*
X001175Y006505D01*
X001158Y006472D01*
X001138Y006441D01*
X001115Y006412D01*
X001088Y006385D01*
X001059Y006362D01*
X001028Y006342D01*
X000995Y006325D01*
X000960Y006311D01*
X000924Y006302D01*
X000887Y006296D01*
X000850Y006294D01*
X000813Y006296D01*
X000776Y006302D01*
X000740Y006311D01*
X000705Y006325D01*
X000672Y006342D01*
X000641Y006362D01*
X000612Y006385D01*
X000585Y006412D01*
X000562Y006441D01*
X000542Y006472D01*
X000525Y006505D01*
X000511Y006540D01*
X000502Y006576D01*
X000496Y006613D01*
X000494Y006650D01*
D11*
X000850Y000850D03*
X005150Y000850D03*
X005150Y006650D03*
X000850Y006650D03*
D12*
X001515Y005650D03*
X002185Y005650D03*
X003415Y005650D03*
X004085Y005650D03*
D13*
X003578Y003950D03*
X003578Y003450D03*
X003578Y002950D03*
X003578Y002450D03*
X003578Y001950D03*
X002122Y001950D03*
X002122Y002450D03*
X002122Y002950D03*
X002122Y003450D03*
X002122Y003950D03*
D14*
X006350Y004050D03*
X006350Y005050D03*
X006350Y006050D03*
X006350Y003050D03*
X006350Y002050D03*
X006350Y001050D03*
M02*
