G75*
G70*
%OFA0B0*%
%FSLAX24Y24*%
%IPPOS*%
%LPD*%
%AMOC8*
5,1,8,0,0,1.08239X$1,22.5*
%
%ADD10C,0.0000*%
%ADD11C,0.0050*%
%ADD12C,0.0060*%
%ADD13C,0.0220*%
%ADD14R,0.0180X0.0300*%
%ADD15C,0.0100*%
%ADD16C,0.0080*%
D10*
X000150Y000150D02*
X000150Y007320D01*
X007142Y007320D01*
X007142Y000150D01*
X000150Y000150D01*
D11*
X000475Y001622D02*
X000610Y001622D01*
X000655Y001667D01*
X000610Y001712D01*
X000475Y001712D01*
X000475Y001802D02*
X000655Y001802D01*
X000655Y001757D01*
X000610Y001712D01*
X000610Y001916D02*
X000520Y001916D01*
X000475Y001961D01*
X000475Y002051D01*
X000520Y002096D01*
X000610Y002096D01*
X000655Y002051D01*
X000655Y001961D01*
X000610Y001916D01*
X000655Y002211D02*
X000655Y002346D01*
X000610Y002391D01*
X000520Y002391D01*
X000475Y002346D01*
X000475Y002211D01*
X000475Y002493D02*
X000475Y002538D01*
X000520Y002538D01*
X000520Y002493D01*
X000475Y002493D01*
X000520Y002653D02*
X000475Y002698D01*
X000475Y002833D01*
X000565Y002788D02*
X000610Y002833D01*
X000655Y002788D01*
X000655Y002653D01*
X000565Y002698D02*
X000565Y002788D01*
X000565Y002698D02*
X000520Y002653D01*
X000475Y002939D02*
X000520Y002984D01*
X000700Y002984D01*
X000655Y003029D02*
X000655Y002939D01*
X000610Y003144D02*
X000475Y003144D01*
X000610Y003144D02*
X000655Y003189D01*
X000655Y003324D01*
X000475Y003324D01*
X000565Y003439D02*
X000565Y003619D01*
X000520Y003619D02*
X000610Y003619D01*
X000655Y003574D01*
X000655Y003484D01*
X000610Y003439D01*
X000565Y003439D01*
X000475Y003484D02*
X000475Y003574D01*
X000520Y003619D01*
X000475Y003733D02*
X000475Y003868D01*
X000520Y003913D01*
X000610Y003913D01*
X000655Y003868D01*
X000655Y003733D01*
X000430Y003733D01*
X000385Y003778D01*
X000385Y003823D01*
X000475Y004028D02*
X000655Y004028D01*
X000745Y004118D01*
X000655Y004208D01*
X000475Y004208D01*
X000475Y004322D02*
X000610Y004322D01*
X000655Y004368D01*
X000655Y004503D01*
X000475Y004503D01*
X000655Y004613D02*
X000655Y004658D01*
X000565Y004748D01*
X000475Y004748D02*
X000655Y004748D01*
X000610Y004863D02*
X000565Y004863D01*
X000565Y005043D01*
X000520Y005043D02*
X000610Y005043D01*
X000655Y004998D01*
X000655Y004908D01*
X000610Y004863D01*
X000475Y004908D02*
X000475Y004998D01*
X000520Y005043D01*
X000475Y005149D02*
X000520Y005194D01*
X000700Y005194D01*
X000655Y005239D02*
X000655Y005149D01*
X000655Y005346D02*
X000655Y005436D01*
X000700Y005391D02*
X000520Y005391D01*
X000475Y005346D01*
X000475Y005550D02*
X000475Y005685D01*
X000520Y005730D01*
X000565Y005685D01*
X000565Y005550D01*
X000610Y005550D02*
X000475Y005550D01*
X000610Y005550D02*
X000655Y005595D01*
X000655Y005685D01*
X000610Y005845D02*
X000565Y005890D01*
X000565Y006025D01*
X000475Y006025D02*
X000745Y006025D01*
X000745Y005890D01*
X000700Y005845D01*
X000610Y005845D01*
X001236Y006000D02*
X001281Y005955D01*
X001371Y005955D01*
X001416Y006000D01*
X001530Y005955D02*
X001711Y005955D01*
X001620Y005955D02*
X001620Y006225D01*
X001530Y006135D01*
X001416Y006180D02*
X001371Y006225D01*
X001281Y006225D01*
X001236Y006180D01*
X001236Y006000D01*
X001620Y006375D02*
X001575Y006420D01*
X001620Y006375D02*
X001710Y006375D01*
X001755Y006420D01*
X001755Y006465D01*
X001710Y006510D01*
X001620Y006510D01*
X001575Y006555D01*
X001575Y006600D01*
X001620Y006645D01*
X001710Y006645D01*
X001755Y006600D01*
X001870Y006645D02*
X002050Y006645D01*
X001960Y006645D02*
X001960Y006375D01*
X002164Y006510D02*
X002344Y006510D01*
X002459Y006375D02*
X002639Y006375D01*
X002754Y006375D02*
X002844Y006375D01*
X002799Y006375D02*
X002799Y006645D01*
X002754Y006645D02*
X002844Y006645D01*
X002950Y006645D02*
X003130Y006375D01*
X003130Y006645D01*
X003245Y006645D02*
X003245Y006375D01*
X003245Y006465D02*
X003425Y006645D01*
X003290Y006510D02*
X003425Y006375D01*
X003539Y006375D02*
X003719Y006645D01*
X003834Y006645D02*
X003834Y006465D01*
X003924Y006375D01*
X004014Y006465D01*
X004014Y006645D01*
X004129Y006600D02*
X004174Y006645D01*
X004264Y006645D01*
X004309Y006600D01*
X004309Y006555D01*
X004129Y006375D01*
X004309Y006375D01*
X004264Y006855D02*
X004174Y006855D01*
X004129Y006900D01*
X004129Y006990D01*
X004174Y007035D01*
X004264Y007035D01*
X004309Y006990D01*
X004309Y006900D01*
X004264Y006855D01*
X004423Y006990D02*
X004603Y006990D01*
X004022Y007035D02*
X003932Y007035D01*
X003977Y007080D02*
X003977Y006900D01*
X004022Y006855D01*
X003818Y006990D02*
X003638Y006990D01*
X003523Y007125D02*
X003523Y006855D01*
X003433Y007035D02*
X003523Y007125D01*
X003433Y007035D02*
X003343Y007125D01*
X003343Y006855D01*
X003228Y006900D02*
X003183Y006855D01*
X003093Y006855D01*
X003048Y006900D01*
X003228Y007080D01*
X003228Y006900D01*
X003228Y007080D02*
X003183Y007125D01*
X003093Y007125D01*
X003048Y007080D01*
X003048Y006900D01*
X002934Y006855D02*
X002754Y006855D01*
X002844Y006855D02*
X002844Y007125D01*
X002754Y007035D01*
X002639Y006990D02*
X002639Y006900D01*
X002594Y006855D01*
X002504Y006855D01*
X002459Y006900D01*
X002459Y007080D01*
X002504Y007125D01*
X002594Y007125D01*
X002639Y007080D01*
X002639Y006990D02*
X002549Y006990D01*
X002344Y006990D02*
X002164Y006990D01*
X002164Y007035D02*
X002254Y007125D01*
X002344Y007035D01*
X002344Y006855D01*
X002164Y006855D02*
X002164Y007035D01*
X002050Y007125D02*
X001870Y007125D01*
X001960Y007125D02*
X001960Y006855D01*
X001710Y006900D02*
X001710Y007125D01*
X001665Y007125D02*
X001755Y007125D01*
X001710Y006900D02*
X001665Y006855D01*
X001620Y006855D01*
X001575Y006900D01*
X002459Y006645D02*
X002459Y006375D01*
X002950Y006375D02*
X002950Y006645D01*
X003136Y006225D02*
X003271Y006225D01*
X003316Y006180D01*
X003316Y006090D01*
X003271Y006045D01*
X003136Y006045D01*
X003136Y005955D02*
X003136Y006225D01*
X003226Y006045D02*
X003316Y005955D01*
X003430Y005955D02*
X003611Y005955D01*
X003520Y005955D02*
X003520Y006225D01*
X003430Y006135D01*
X002358Y005009D02*
X002063Y004714D01*
X001767Y005009D01*
X002358Y005009D01*
X002349Y005000D02*
X001776Y005000D01*
X001825Y004952D02*
X002300Y004952D01*
X002252Y004903D02*
X001873Y004903D01*
X001922Y004855D02*
X002203Y004855D01*
X002155Y004806D02*
X001970Y004806D01*
X002019Y004758D02*
X002106Y004758D01*
X001343Y004662D02*
X001343Y004572D01*
X001298Y004527D01*
X001118Y004527D01*
X001073Y004572D01*
X001073Y004662D01*
X001118Y004707D01*
X001208Y004707D02*
X001208Y004617D01*
X001208Y004707D02*
X001298Y004707D01*
X001343Y004662D01*
X001343Y004413D02*
X001163Y004413D01*
X001073Y004323D01*
X001163Y004233D01*
X001343Y004233D01*
X001208Y004233D02*
X001208Y004413D01*
X001073Y004118D02*
X001073Y003938D01*
X001073Y004028D02*
X001343Y004028D01*
X001298Y003778D02*
X001073Y003778D01*
X001073Y003733D02*
X001073Y003823D01*
X001298Y003778D02*
X001343Y003733D01*
X001343Y003688D01*
X001298Y003643D01*
X000610Y004028D02*
X000610Y004208D01*
X005435Y004490D02*
X005480Y004445D01*
X005525Y004445D01*
X005570Y004490D01*
X005570Y004580D01*
X005615Y004625D01*
X005660Y004625D01*
X005705Y004580D01*
X005705Y004490D01*
X005660Y004445D01*
X005480Y004625D02*
X005435Y004580D01*
X005435Y004490D01*
X005435Y004740D02*
X005435Y004920D01*
X005435Y004830D02*
X005705Y004830D01*
X005570Y005034D02*
X005570Y005214D01*
X005435Y005329D02*
X005705Y005329D01*
X005705Y005509D01*
X005705Y005624D02*
X005705Y005714D01*
X005705Y005669D02*
X005435Y005669D01*
X005435Y005624D02*
X005435Y005714D01*
X005435Y005820D02*
X005705Y006000D01*
X005435Y006000D01*
X005435Y006115D02*
X005705Y006115D01*
X005615Y006115D02*
X005435Y006295D01*
X005570Y006160D02*
X005705Y006295D01*
X005705Y005820D02*
X005435Y005820D01*
D12*
X005932Y006680D02*
X005875Y006737D01*
X005932Y006680D02*
X006045Y006680D01*
X006102Y006737D01*
X006102Y006793D01*
X006045Y006850D01*
X005932Y006850D01*
X005875Y006907D01*
X005875Y006964D01*
X005932Y007020D01*
X006045Y007020D01*
X006102Y006964D01*
X006243Y007020D02*
X006243Y006680D01*
X006357Y006793D01*
X006470Y006680D01*
X006470Y007020D01*
X006612Y007020D02*
X006782Y007020D01*
X006839Y006964D01*
X006839Y006737D01*
X006782Y006680D01*
X006612Y006680D01*
X006612Y007020D01*
D13*
X001850Y005662D02*
X001850Y005638D01*
D14*
X003750Y005650D03*
D15*
X004228Y005025D02*
X001472Y005025D01*
X001472Y003344D01*
X001472Y002556D02*
X001472Y000875D01*
X004228Y000875D01*
X004228Y005025D01*
D16*
X005850Y004800D02*
X005850Y005300D01*
X006100Y005550D01*
X005850Y005800D01*
X005850Y006300D01*
X006100Y006550D01*
X006600Y006550D01*
X006850Y006300D01*
X006850Y005800D01*
X006600Y005550D01*
X006850Y005300D01*
X006850Y004800D01*
X006600Y004550D01*
X006850Y004300D01*
X006850Y003800D01*
X006600Y003550D01*
X006850Y003300D01*
X006850Y002800D01*
X006600Y002550D01*
X006850Y002300D01*
X006850Y001800D01*
X006600Y001550D01*
X006850Y001300D01*
X006850Y000800D01*
X006600Y000550D01*
X006100Y000550D01*
X005850Y000800D01*
X005850Y001300D01*
X006100Y001550D01*
X005850Y001800D01*
X005850Y002300D01*
X006100Y002550D01*
X005850Y002800D01*
X005850Y003300D01*
X006100Y003550D01*
X005850Y003800D01*
X005850Y004300D01*
X006100Y004550D01*
X005850Y004800D01*
M02*
